<svg width="141" height="32" viewBox="0 0 141 32" fill="none" xmlns="http://www.w3.org/2000/svg">
<path fill-rule="evenodd" clip-rule="evenodd" d="M71.1807 28.4625C71.1807 28.4625 72.0164 28.0574 73.4823 27.5122C74.2376 27.8735 75.8929 28.626 77.4958 29.0891C79.6653 29.7157 81.1114 29.6192 83.1361 29.6192C85.1606 29.6192 88.0531 29.2818 88.0531 29.2818C88.0531 29.2818 87.6193 27.6912 87.571 26.5342C87.523 25.377 87.523 25.1843 87.523 25.1843C87.523 25.1843 87.0889 26.8234 87.1854 27.6912C87.2818 28.5587 87.2818 28.8481 87.2818 28.8481C87.2818 28.8481 83.4735 29.2338 80.774 28.9444C78.0744 28.6552 76.4353 28.3658 75.2784 27.9803C74.6409 27.7677 74.0328 27.5847 73.6152 27.463C75.6603 26.71 78.8608 25.7124 82.702 25.1363C89.4508 24.1238 88.1011 24.4612 88.1011 24.4612C88.1011 24.4612 88.2458 24.1721 89.1134 24.0758C89.9812 23.9793 98.8512 23.5455 101.599 23.7382C104.347 23.9309 111.915 24.3168 113.024 25.0398C114.133 25.7629 114.567 26.486 114.229 28.2695C113.892 30.0533 113.217 31.7889 112.59 31.403C111.964 31.0173 109.843 29.3785 107.818 29.0891C105.793 28.7999 103.575 28.8481 102.66 29.0891C101.744 29.3303 100.201 30.2943 99.478 30.0533C98.755 29.8124 97.3088 28.4625 96.1518 28.9446C94.9949 29.4267 94.9466 29.5712 94.4163 30.246C93.8862 30.9211 93.1629 31.6924 92.5845 30.9693C92.0059 30.246 90.9454 29.9086 90.0294 29.8604C89.1136 29.8124 88.2941 30.1016 88.0531 30.3425C87.812 30.5837 87.4745 31.0656 87.4745 31.0656C87.4745 31.0656 85.9802 30.6802 84.2446 30.8729C82.5093 31.0656 79.5206 31.2103 77.4958 30.8246C75.4711 30.439 71.1807 28.4625 71.1807 28.4625ZM89.4028 29.0408C89.4028 29.0408 91.3313 28.7034 92.0544 29.2335C92.7774 29.7639 92.9219 30.1978 94.2236 29.1373C95.5253 28.0766 96.3446 27.3053 97.7909 28.0766C99.2371 28.8481 99.9121 29.33 101.31 28.607C102.708 27.8839 105.745 27.1126 108.3 28.1731C110.855 29.2336 112.832 30.9209 113.217 29.8604C113.603 28.7997 113.796 27.6427 111.819 27.209C109.843 26.7752 106.902 26.293 104.203 26.7269C101.503 27.1608 101.021 28.414 99.9121 28.0766C98.8032 27.7392 97.5982 26.7269 96.2483 27.2571C94.8984 27.7874 93.7415 29.4265 92.6327 28.8961C91.524 28.366 90.7527 27.8839 90.0779 28.2213C89.4028 28.5587 89.4028 29.0408 89.4028 29.0408Z" fill="white"/>
<path d="M1.12942 0.25439V7.42317H1.45965C1.48515 7.01224 1.5487 6.59689 1.65468 6.18179C1.75625 5.76228 1.88751 5.35994 2.05285 4.97429C2.21379 4.59281 2.40024 4.24565 2.61196 3.93189C2.81975 3.62276 3.0484 3.37254 3.29028 3.17751C3.46815 3.02955 3.6968 2.88949 3.98065 2.75406C4.2645 2.6184 4.60354 2.50824 4.99754 2.4236C5.39595 2.33455 5.84932 2.29212 6.366 2.28795H11.7554L0.41748 17.8968L0.468266 18.0494H16.8653V9.81268H16.5349C16.5094 10.279 16.4625 10.7533 16.3948 11.2322C16.3229 11.711 16.2255 12.1772 16.0984 12.6303C15.967 13.0837 15.8016 13.5032 15.5985 13.893C15.3951 14.2786 15.1493 14.6133 14.8568 14.8971C14.4883 15.2403 14.0985 15.4903 13.6918 15.6515C13.2808 15.8124 12.8741 15.914 12.4629 15.9564C12.0564 16.0031 11.6666 16.0198 11.2979 16.0156H5.70508L16.9924 0.406757L16.8653 0.25439H1.12942ZM21.9751 15.2023C21.9792 15.4096 21.9709 15.6216 21.9456 15.8419C21.9243 16.0622 21.8649 16.2825 21.7761 16.4945C21.687 16.7064 21.5386 16.9054 21.3396 17.0835C21.1488 17.24 20.9373 17.3632 20.6954 17.4437C20.4584 17.5285 20.2126 17.5877 19.9585 17.6215C19.7041 17.6554 19.4627 17.6806 19.2296 17.6936L18.7975 17.7189V18.0494H36.6433V10.321H36.3128L36.2368 11.1095C36.1985 11.5288 36.1392 11.9441 36.0631 12.3675C35.9824 12.7871 35.8553 13.1938 35.6733 13.5878C35.4952 13.9862 35.2327 14.3505 34.8894 14.6938C34.7835 14.8039 34.6267 14.9354 34.4233 15.0834C34.2197 15.2318 33.9616 15.376 33.6437 15.5156C33.326 15.6598 32.9445 15.7784 32.4997 15.8718C32.0547 15.9648 31.538 16.0114 30.949 16.0156H25.1273V3.10144C25.1231 2.95302 25.1315 2.76681 25.1572 2.5465C25.1783 2.3262 25.2375 2.09732 25.3265 1.86008C25.42 1.62262 25.5637 1.41112 25.7629 1.22027C25.9452 1.05933 26.157 0.940584 26.3984 0.860346C26.6444 0.77547 26.8942 0.716116 27.1527 0.682027C27.4069 0.648401 27.6485 0.622878 27.873 0.610123L28.3053 0.58485V0.25439H18.7975V0.58485L19.2296 0.610123C19.4543 0.622878 19.6957 0.648401 19.9543 0.682027C20.2082 0.716116 20.4584 0.77547 20.704 0.860346C20.9457 0.940584 21.1576 1.05933 21.3396 1.22027C21.5386 1.41112 21.687 1.62262 21.7761 1.86008C21.8649 2.09732 21.9243 2.3262 21.9456 2.5465C21.9709 2.76681 21.9792 2.95302 21.9751 3.10144V15.2023ZM46.024 0L40.482 13.3719C40.2958 13.8081 40.1262 14.181 39.9737 14.4862C39.8211 14.7912 39.6898 15.0455 39.5755 15.2487C39.4609 15.4479 39.3635 15.6091 39.2875 15.7359C39.2068 15.8718 39.0924 16.0369 38.9526 16.2234C38.8127 16.4096 38.6349 16.6004 38.4188 16.7952C38.2068 16.9861 37.9529 17.1598 37.6519 17.3124C37.3553 17.4648 37.012 17.5749 36.618 17.6429L36.135 17.7189V18.0494H45.2615V17.7189L44.6258 17.6681C44.3761 17.6512 44.1089 17.6087 43.8251 17.541C43.5412 17.4733 43.2743 17.3673 43.0199 17.2275C42.766 17.0877 42.554 16.9054 42.3889 16.6765C42.253 16.4861 42.16 16.2616 42.1051 15.9989C42.0541 15.7403 42.0369 15.4732 42.0626 15.1981C42.0835 14.9271 42.1429 14.6727 42.2363 14.4396L43.2024 12.0754H49.7103L50.8543 14.8719C50.922 15.0284 50.9772 15.1981 51.0279 15.3843C51.0787 15.575 51.104 15.7575 51.1084 15.9395C51.104 16.3166 51.0321 16.6174 50.8881 16.8377C50.7483 17.0622 50.566 17.2275 50.3459 17.3377C50.2311 17.4054 50.0915 17.4603 49.9306 17.5028C49.7694 17.5452 49.5749 17.5835 49.3374 17.6129C49.1002 17.6429 48.8077 17.6681 48.4647 17.6936L48.0833 17.7189V18.0494H58.0488V17.7189L57.6418 17.6936C57.341 17.6765 57.0442 17.6257 56.752 17.541C56.4598 17.4603 56.1926 17.3544 55.947 17.2275C55.6971 17.1004 55.4935 16.9562 55.3283 16.8041C55.1802 16.6556 55.0359 16.4606 54.9005 16.2234C54.7606 15.982 54.6081 15.664 54.4344 15.2659C54.2648 14.8719 54.0529 14.3677 53.8031 13.7532L48.1851 0H46.024ZM49.0749 10.2957H43.8378L46.431 4.04204H46.4817L49.0749 10.2957ZM65.7261 2.28795H67.6073C67.7555 2.28377 67.9422 2.29212 68.1667 2.30928C68.3911 2.32621 68.6325 2.36007 68.8953 2.41943C69.158 2.47439 69.4205 2.56321 69.6833 2.68218C69.9502 2.80509 70.196 2.97019 70.4291 3.17751C70.641 3.37254 70.8316 3.6311 71.0053 3.95739C71.1746 4.28344 71.3275 4.64382 71.4543 5.03782C71.5858 5.43599 71.6916 5.83881 71.7723 6.24534C71.8525 6.65209 71.9035 7.03752 71.929 7.39789H72.2595V0.25439H56.0405V7.39789H56.371C56.3962 7.03752 56.4512 6.65209 56.5319 6.24534C56.6082 5.83881 56.714 5.43599 56.8452 5.03782C56.9725 4.64382 57.1249 4.28344 57.2988 3.95739C57.4683 3.6311 57.6589 3.37254 57.8707 3.17751C58.1037 2.97019 58.3496 2.80509 58.6162 2.68218C58.8792 2.56321 59.142 2.47439 59.4047 2.41943C59.6672 2.36007 59.9089 2.32621 60.1333 2.30928C60.3578 2.29212 60.5443 2.28377 60.6927 2.28795H62.5739V15.2023C62.5781 15.3505 62.5697 15.5369 62.544 15.7575C62.5229 15.9778 62.4637 16.2065 62.3747 16.4437C62.2858 16.6765 62.1374 16.8926 61.9382 17.0835C61.756 17.24 61.5442 17.3632 61.3028 17.4437C61.0568 17.5285 60.807 17.5835 60.5526 17.6215C60.2943 17.6554 60.0526 17.6765 59.8282 17.6936L59.3959 17.7189V18.0494H68.9036V17.7189L68.4716 17.6936C68.2469 17.6765 68.0055 17.6554 67.7513 17.6215C67.493 17.5835 67.2427 17.5285 66.9972 17.4437C66.7555 17.3632 66.544 17.24 66.3615 17.0835C66.1625 16.8926 66.0183 16.6765 65.9251 16.4437C65.8363 16.2065 65.7769 15.9778 65.7556 15.7575C65.7303 15.5369 65.7219 15.3505 65.7261 15.2023V2.28795ZM98.1135 0.25439H90.487L85.733 12.3297H85.6569L80.9029 0.25439H72.9714V0.58485L73.4037 0.610123C73.6282 0.622878 73.8696 0.648401 74.1281 0.682027C74.3821 0.716116 74.6323 0.77547 74.8779 0.860346C75.1195 0.940584 75.3315 1.05933 75.5135 1.22027C75.7125 1.41112 75.8609 1.62262 75.95 1.86008C76.0388 2.09732 76.0981 2.3262 76.1195 2.5465C76.1448 2.76681 76.1531 2.95302 76.1489 3.10144V14.6938C76.1531 14.8888 76.1406 15.1258 76.1153 15.4055C76.0898 15.6851 76.0304 15.969 75.9374 16.253C75.8484 16.5369 75.7041 16.7783 75.5135 16.9819C75.3484 17.1429 75.1365 17.2741 74.8867 17.3759C74.6365 17.4775 74.3779 17.5538 74.1154 17.6046C73.8485 17.6554 73.6113 17.685 73.4037 17.6936L72.9714 17.7189V18.0494H81.5386V17.7189L81.1063 17.6936C80.8988 17.685 80.6615 17.6554 80.3946 17.6046C80.1319 17.5538 79.8735 17.4775 79.6233 17.3759C79.3735 17.2741 79.1616 17.1429 78.9965 16.9819C78.8439 16.8249 78.7251 16.6429 78.6403 16.4309C78.5514 16.2192 78.4881 16.0031 78.4499 15.7784C78.4116 15.558 78.3863 15.3505 78.3736 15.1599C78.365 14.9648 78.3608 14.8125 78.3608 14.6938V2.7202H78.4371L84.4874 18.0494H85.6569L91.7072 2.7202H91.7835V15.2023C91.7877 15.3505 91.7793 15.5369 91.7538 15.7575C91.7327 15.9778 91.6775 16.2065 91.5843 16.4437C91.4953 16.6765 91.3471 16.8926 91.1479 17.0835C90.9658 17.24 90.7539 17.3632 90.5125 17.4437C90.2667 17.5285 90.0167 17.5835 89.7625 17.6215C89.5039 17.6554 89.2625 17.6765 89.0378 17.6936L88.6058 17.7189V18.0494H98.1135V17.7189L97.6813 17.6936C97.4568 17.6765 97.2153 17.6554 96.961 17.6215C96.7024 17.5835 96.4526 17.5285 96.2112 17.4437C95.9652 17.3632 95.7534 17.24 95.5712 17.0835C95.372 16.8926 95.2282 16.6765 95.1347 16.4437C95.0461 16.2065 94.9865 15.9778 94.9654 15.7575C94.9443 15.5369 94.9314 15.3505 94.936 15.2023V3.10144C94.9314 2.95302 94.9443 2.76681 94.9654 2.5465C94.9865 2.3262 95.0461 2.09732 95.1347 1.86008C95.2282 1.62262 95.372 1.41112 95.5712 1.22027C95.7534 1.05933 95.9652 0.940584 96.2112 0.860346C96.4526 0.77547 96.7024 0.716116 96.961 0.682027C97.2153 0.648401 97.4568 0.622878 97.6813 0.610123L98.1135 0.58485V0.25439ZM107.443 0L101.901 13.3719C101.715 13.8081 101.545 14.181 101.393 14.4862C101.24 14.7912 101.109 15.0455 100.995 15.2487C100.88 15.4479 100.783 15.6091 100.707 15.7359C100.626 15.8718 100.512 16.0369 100.372 16.2234C100.232 16.4096 100.054 16.6004 99.8379 16.7952C99.626 16.9861 99.372 17.1598 99.071 17.3124C98.7744 17.4648 98.4315 17.5749 98.0375 17.6429L97.5542 17.7189V18.0494H106.681V17.7189L106.045 17.6681C105.795 17.6512 105.528 17.6087 105.244 17.541C104.96 17.4733 104.693 17.3673 104.439 17.2275C104.185 17.0877 103.973 16.9054 103.808 16.6765C103.672 16.4861 103.579 16.2616 103.524 15.9989C103.473 15.7403 103.456 15.4732 103.482 15.1981C103.503 14.9271 103.562 14.6727 103.656 14.4396L104.622 12.0754H111.129L112.273 14.8719C112.341 15.0284 112.396 15.1981 112.447 15.3843C112.498 15.575 112.523 15.7575 112.528 15.9395C112.523 16.3166 112.451 16.6174 112.307 16.8377C112.167 17.0622 111.985 17.2275 111.765 17.3377C111.65 17.4054 111.511 17.4603 111.35 17.5028C111.189 17.5452 110.994 17.5835 110.757 17.6129C110.519 17.6429 110.227 17.6681 109.884 17.6936L109.502 17.7189V18.0494H119.468V17.7189L119.061 17.6936C118.76 17.6765 118.463 17.6257 118.171 17.541C117.879 17.4603 117.612 17.3544 117.366 17.2275C117.116 17.1004 116.913 16.9562 116.748 16.8041C116.599 16.6556 116.455 16.4606 116.32 16.2234C116.18 15.982 116.027 15.664 115.854 15.2659C115.684 14.8719 115.472 14.3677 115.222 13.7532L109.604 0H107.443ZM110.494 10.2957H105.257L107.85 4.04204H107.901L110.494 10.2957ZM118.553 0.25439V0.58485L119.036 0.686647C119.345 0.758536 119.663 0.89398 119.989 1.08901C120.315 1.28381 120.629 1.50828 120.929 1.76685C121.23 2.02542 121.498 2.28377 121.73 2.54211L127.603 9.07569L122.645 14.8464C122.561 14.9523 122.438 15.0792 122.286 15.2318C122.133 15.3843 121.963 15.5455 121.786 15.7106C121.604 15.876 121.434 16.0286 121.269 16.1682C121.108 16.3083 120.972 16.4184 120.866 16.4987C120.468 16.7911 120.036 17.0452 119.57 17.253C119.108 17.4603 118.65 17.6173 118.197 17.7189V18.0494H128.188V17.7189L127.577 17.6681C127.099 17.6257 126.73 17.5705 126.467 17.5072C126.209 17.4392 126.035 17.3926 125.95 17.3632C125.768 17.2952 125.599 17.2106 125.438 17.0963C125.277 16.9861 125.141 16.846 125.04 16.6682C124.938 16.4945 124.887 16.2783 124.883 16.0156C124.887 15.8166 124.942 15.6091 125.044 15.3888C125.146 15.1685 125.26 14.9648 125.391 14.7786C125.522 14.5922 125.633 14.4438 125.722 14.3378L128.95 10.5754L132.433 14.4141C132.615 14.6091 132.785 14.8125 132.946 15.02C133.107 15.2318 133.242 15.4437 133.344 15.664C133.445 15.8802 133.496 16.1005 133.501 16.3208C133.496 16.5708 133.429 16.7783 133.293 16.9437C133.162 17.1046 132.984 17.2359 132.763 17.3377C132.531 17.452 132.259 17.5369 131.959 17.5921C131.658 17.647 131.357 17.6806 131.06 17.6936L130.323 17.7189V18.0494H141V17.7189C140.721 17.685 140.415 17.6129 140.089 17.5028C139.758 17.3926 139.411 17.2189 139.043 16.9819C138.581 16.6598 138.132 16.2742 137.704 15.8166C137.276 15.363 136.822 14.863 136.348 14.3125L130.933 8.26195L134.365 4.29643C134.611 4.01258 134.869 3.71159 135.14 3.38948C135.416 3.06737 135.708 2.75406 136.022 2.44887C136.331 2.14392 136.67 1.86865 137.034 1.62678C137.259 1.483 137.505 1.34294 137.78 1.21191C138.056 1.08066 138.344 0.970501 138.644 0.87287C138.941 0.775471 139.233 0.703358 139.526 0.66092L140.034 0.58485V0.25439H129.814V0.58485L130.45 0.635646C130.916 0.673678 131.297 0.741373 131.594 0.834597C131.89 0.928053 132.119 1.04239 132.28 1.16947C132.467 1.30931 132.602 1.4619 132.679 1.63142C132.755 1.80511 132.793 1.99552 132.789 2.21165C132.785 2.46605 132.751 2.69051 132.679 2.89365C132.611 3.09309 132.526 3.2668 132.425 3.4194C132.323 3.57199 132.225 3.70323 132.128 3.81338L129.586 6.78777L125.976 2.77098C125.84 2.61839 125.743 2.48298 125.692 2.36424C125.641 2.24574 125.616 2.13559 125.62 2.03378C125.616 1.83875 125.662 1.64836 125.768 1.46191C125.87 1.27523 126.056 1.11012 126.332 0.966106C126.463 0.906507 126.616 0.851537 126.794 0.805156C126.972 0.758544 127.154 0.720288 127.336 0.690836C127.518 0.665327 127.683 0.644227 127.832 0.635646L128.416 0.58485V0.25439H118.553Z" fill="white"/>
<path d="M0.365245 26.4279C0.474239 26.3595 0.594824 26.2971 0.726776 26.2389C0.858728 26.1814 0.998102 26.1348 1.14466 26.0998C1.29239 26.0638 1.44196 26.0462 1.59293 26.0446C1.8035 26.0446 1.98763 26.081 2.1444 26.1522C2.30256 26.2245 2.4243 26.3291 2.51266 26.4671C2.59985 26.6065 2.64484 26.776 2.64647 26.9764C2.64484 27.1273 2.61005 27.2679 2.53886 27.3987C2.46906 27.529 2.37051 27.6422 2.24435 27.7409C2.11959 27.8395 1.97302 27.9165 1.80466 27.9717C1.63815 28.0267 1.45657 28.0545 1.26201 28.0559H0.922511V28.6305H1.27059C1.42202 28.6305 1.57275 28.6407 1.72349 28.6637C1.87562 28.6855 2.01964 28.7231 2.156 28.7752C2.29096 28.8279 2.4127 28.8974 2.51868 28.9842C2.62466 29.0714 2.70885 29.1787 2.76961 29.3063C2.83199 29.4341 2.86259 29.5867 2.86399 29.7622C2.86399 29.9781 2.81181 30.1699 2.70885 30.3366C2.60426 30.505 2.45329 30.6355 2.25478 30.7313C2.05418 30.8257 1.81208 30.8749 1.52313 30.8767C1.35964 30.8749 1.19685 30.8575 1.03568 30.8241C0.873345 30.7907 0.72075 30.7471 0.578826 30.6938C0.434815 30.64 0.308896 30.5818 0.199902 30.5194L0 31.1116C0.228887 31.245 0.474245 31.3435 0.73699 31.4048C0.999271 31.4653 1.26502 31.4961 1.53217 31.4945C1.7483 31.4945 1.95864 31.4743 2.16457 31.4333C2.37212 31.3927 2.56483 31.3303 2.74525 31.245C2.92637 31.1594 3.08452 31.0493 3.22251 30.9155C3.36002 30.7805 3.46762 30.6212 3.54578 30.434C3.62416 30.2469 3.66336 30.0319 3.66475 29.7884C3.65918 29.505 3.59494 29.2602 3.47018 29.0514C3.34542 28.8425 3.17706 28.6741 2.96278 28.5494C2.74781 28.4246 2.50431 28.3476 2.22858 28.3168V28.2998C2.4577 28.2458 2.66223 28.1514 2.84334 28.0181C3.02515 27.8845 3.17033 27.7191 3.27585 27.5216C3.38183 27.3247 3.43563 27.1055 3.43865 26.8632C3.43563 26.5599 3.36304 26.3013 3.2181 26.0882C3.07293 25.8751 2.87257 25.7109 2.61447 25.5977C2.3559 25.4848 2.0572 25.428 1.71468 25.4268C1.39419 25.428 1.10524 25.4704 0.848525 25.5497C0.593433 25.6314 0.365242 25.7369 0.165343 25.8707L0.365245 26.4279ZM5.08375 25.5309V28.0037C5.08538 28.24 5.08073 28.484 5.06914 28.7335C5.05893 28.983 5.03714 29.224 5.00374 29.4573C4.96919 29.691 4.91817 29.9016 4.8486 30.0901C4.77903 30.2784 4.68627 30.4296 4.57008 30.5456C4.4975 30.6168 4.40776 30.6817 4.29737 30.7415C4.18676 30.7997 4.0722 30.8387 3.95184 30.8591L4.04761 31.4683C4.16241 31.4672 4.27395 31.4539 4.38595 31.4266C4.49611 31.4001 4.60047 31.3654 4.69787 31.3231C4.7948 31.2812 4.87898 31.2376 4.95296 31.1898C5.11575 31.0766 5.25072 30.9331 5.35925 30.7603C5.46685 30.5862 5.55242 30.3904 5.61596 30.1729C5.6802 29.9538 5.72797 29.7212 5.75835 29.4747C5.79036 29.2265 5.81053 28.9744 5.81934 28.7147C5.82954 28.4547 5.83395 28.198 5.83233 27.9425V26.1668H7.76523V31.3987H8.5312V25.5309H5.08375ZM12.8754 29.5533L13.5023 31.3987H14.3118L12.3096 25.5309H11.4042L9.40176 31.3987H10.1854L10.7946 29.5533H12.8754ZM10.9513 28.9612L11.526 27.2637C11.5867 27.0838 11.6405 26.9052 11.6872 26.7252C11.7349 26.5467 11.7799 26.3711 11.8221 26.2014H11.8393C11.8815 26.3697 11.9281 26.5441 11.9759 26.7211C12.0239 26.8978 12.0802 27.0807 12.1438 27.272L12.7275 28.9612H10.9513ZM16.2876 31.3987H17.0536V26.1754H18.8473V25.5309H14.5034V26.1754H16.2876V31.3987ZM21.8676 25.4268C21.4746 25.428 21.1119 25.5008 20.7826 25.6459C20.4516 25.7909 20.1659 25.9984 19.9225 26.2681C19.6785 26.5395 19.49 26.8632 19.3562 27.2405C19.2212 27.6192 19.1532 28.0413 19.1516 28.5088C19.1532 28.9538 19.217 29.3585 19.3448 29.7242C19.4726 30.0887 19.6523 30.4032 19.886 30.6678C20.1198 30.9317 20.3983 31.1346 20.7202 31.2781C21.0423 31.4205 21.3978 31.4931 21.7895 31.4945C22.09 31.4945 22.3771 31.4509 22.6485 31.3653C22.9198 31.2812 23.1695 31.1534 23.3956 30.9853C23.6222 30.8169 23.8195 30.6096 23.9861 30.3601C24.1533 30.1119 24.2841 29.8246 24.375 29.4978C24.4663 29.1713 24.5129 28.8061 24.5143 28.404C24.5129 27.9643 24.4506 27.564 24.3272 27.2013C24.204 26.8372 24.0266 26.5235 23.7947 26.2596C23.564 25.9943 23.2855 25.7895 22.9606 25.6459C22.6369 25.5019 22.2716 25.428 21.8676 25.4268ZM21.8417 26.0446C22.0942 26.0462 22.3205 26.0912 22.5211 26.1814C22.7227 26.2698 22.8966 26.3929 23.0462 26.5483C23.1958 26.7048 23.3205 26.885 23.4191 27.0879C23.5178 27.2911 23.5918 27.5088 23.641 27.7379C23.6888 27.9687 23.7136 28.2024 23.7136 28.439C23.7136 28.7741 23.6716 29.089 23.5888 29.3821C23.5058 29.6752 23.384 29.9331 23.2247 30.1567C23.0635 30.3802 22.8676 30.5558 22.6338 30.6836C22.4006 30.8095 22.1334 30.8737 21.8331 30.8767C21.5921 30.8749 21.3735 30.8331 21.1759 30.7501C20.9785 30.6659 20.8044 30.5497 20.6522 30.4006C20.4996 30.2511 20.3719 30.0755 20.2689 29.8768C20.1645 29.6764 20.0859 29.4589 20.0326 29.224C19.9804 28.989 19.9526 28.7449 19.9526 28.4912C19.9526 28.2344 19.9774 27.9849 20.0284 27.7451C20.0773 27.5058 20.1532 27.2825 20.2543 27.0766C20.3547 26.8718 20.4809 26.6918 20.6316 26.5369C20.7826 26.3829 20.9597 26.2626 21.1615 26.1765C21.363 26.0898 21.5891 26.0462 21.8417 26.0446ZM24.8538 25.5309L26.8039 29.5009C26.8387 29.5693 26.8605 29.6286 26.8663 29.6824C26.8718 29.7358 26.8605 29.794 26.8301 29.858C26.7823 29.964 26.7241 30.0755 26.6546 30.1901C26.5848 30.3062 26.5036 30.4134 26.4092 30.5152C26.3148 30.6168 26.2075 30.6979 26.0871 30.7617C25.9665 30.8241 25.8301 30.8575 25.6808 30.8591C25.6159 30.8591 25.5607 30.8575 25.5141 30.8531C25.4675 30.8489 25.4283 30.8415 25.3935 30.8331L25.3239 31.4509C25.3719 31.4683 25.4299 31.4815 25.4978 31.4901C25.5674 31.4987 25.6516 31.5031 25.7504 31.5031C26.0101 31.5031 26.2499 31.4423 26.4674 31.3217C26.6847 31.2 26.8881 31.0203 27.0736 30.7805C27.1782 30.6441 27.28 30.4904 27.3769 30.3165C27.4757 30.1421 27.5701 29.9579 27.6615 29.7622C27.7531 29.5662 27.8414 29.3659 27.9256 29.1627C28.0109 28.9582 28.0923 28.7583 28.171 28.5607L29.407 25.5309H28.6058L27.6833 28.0211C27.6137 28.2284 27.5497 28.4197 27.4915 28.5941C27.4337 28.7666 27.3783 28.9278 27.3261 29.0744H27.3002C27.2348 28.9049 27.168 28.7347 27.0984 28.5637C27.0288 28.3938 26.956 28.2212 26.8823 28.0473L25.7158 25.5309H24.8538ZM33.9771 30.6066C33.8741 30.6557 33.7565 30.6993 33.6232 30.7357C33.4896 30.7719 33.3477 30.7997 33.1965 30.8197C33.0444 30.8403 32.8904 30.8501 32.7325 30.8501C32.2578 30.8475 31.8531 30.7515 31.5194 30.56C31.1857 30.3686 30.9301 30.0973 30.7532 29.7448C30.5765 29.3935 30.4874 28.9756 30.4863 28.4912C30.4874 28.1048 30.5426 27.7628 30.6502 27.4622C30.7587 27.1635 30.9143 26.9094 31.1142 26.7034C31.316 26.4959 31.557 26.3394 31.8373 26.2317C32.1184 26.1246 32.4303 26.071 32.7761 26.071C33.0212 26.0724 33.2429 26.0954 33.4416 26.1408C33.6408 26.1856 33.8103 26.2438 33.9509 26.3145L34.1424 25.6963C34.0756 25.6601 33.9787 25.6225 33.8523 25.5819C33.7262 25.5425 33.5713 25.508 33.3883 25.4802C33.2037 25.4512 32.9906 25.437 32.7494 25.4354C32.2928 25.437 31.8779 25.511 31.5032 25.6575C31.1289 25.8041 30.8067 26.0131 30.5354 26.2844C30.2641 26.5557 30.0552 26.8804 29.9086 27.2563C29.7607 27.6336 29.6869 28.0545 29.685 28.5171C29.6881 29.0004 29.7606 29.4269 29.9042 29.7982C30.048 30.1683 30.2495 30.4788 30.5111 30.7302C30.7708 30.9822 31.0755 31.1724 31.4262 31.3013C31.7761 31.4291 32.159 31.4945 32.5757 31.4945C32.8148 31.4931 33.0342 31.4799 33.2345 31.4539C33.4344 31.4266 33.6118 31.3916 33.7626 31.3496C33.9133 31.3074 34.0339 31.2638 34.1253 31.2158L33.9771 30.6066ZM36.1966 31.3987H36.9628V26.1754H38.7566V25.5309H34.4124V26.1754H36.1966V31.3987ZM41.7769 25.4268C41.3838 25.428 41.0211 25.5008 40.6916 25.6459C40.3609 25.7909 40.0752 25.9984 39.8314 26.2681C39.5875 26.5395 39.3992 26.8632 39.2654 27.2405C39.1304 27.6192 39.0624 28.0413 39.0608 28.5088C39.0624 28.9538 39.126 29.3585 39.2538 29.7242C39.3815 30.0887 39.5615 30.4032 39.7953 30.6678C40.029 30.9317 40.3075 31.1346 40.6292 31.2781C40.9513 31.4205 41.3068 31.4931 41.6987 31.4945C41.999 31.4945 42.2861 31.4509 42.5574 31.3653C42.8288 31.2812 43.0788 31.1534 43.3049 30.9853C43.5312 30.8169 43.7288 30.6096 43.8953 30.3601C44.0625 30.1119 44.193 29.8246 44.2842 29.4978C44.3755 29.1713 44.4222 28.8061 44.4233 28.404C44.4222 27.9643 44.3598 27.564 44.2362 27.2013C44.1133 26.8372 43.9359 26.5235 43.704 26.2596C43.4732 25.9943 43.1945 25.7895 42.8698 25.6459C42.5461 25.5019 42.1806 25.428 41.7769 25.4268ZM41.7509 26.0446C42.0034 26.0462 42.2298 26.0912 42.4301 26.1814C42.6319 26.2698 42.8058 26.3929 42.9554 26.5483C43.105 26.7048 43.2297 26.885 43.3283 27.0879C43.4271 27.2911 43.501 27.5088 43.55 27.7379C43.598 27.9687 43.6228 28.2024 43.6228 28.439C43.6228 28.7741 43.5808 29.089 43.498 29.3821C43.415 29.6752 43.2933 29.9331 43.134 30.1567C42.9728 30.3802 42.7768 30.5558 42.5431 30.6836C42.3098 30.8095 42.0426 30.8737 41.7423 30.8767C41.5014 30.8749 41.2824 30.8331 41.0851 30.7501C40.8877 30.6659 40.7134 30.5497 40.5612 30.4006C40.4089 30.2511 40.2811 30.0755 40.1781 29.8768C40.0738 29.6764 39.9952 29.4589 39.9418 29.224C39.8896 28.989 39.8618 28.7449 39.8618 28.4912C39.8618 28.2344 39.8866 27.9849 39.9374 27.7451C39.9866 27.5058 40.0622 27.2825 40.1635 27.0766C40.2639 26.8718 40.3899 26.6918 40.5408 26.5369C40.6916 26.3829 40.869 26.2626 41.0707 26.1765C41.2723 26.0898 41.4983 26.0462 41.7509 26.0446ZM45.407 31.3811C45.5334 31.3987 45.6958 31.4145 45.8931 31.4291C46.0907 31.4423 46.3215 31.4495 46.5823 31.4509C47.0615 31.4509 47.4677 31.4073 47.8014 31.3176C48.1363 31.2274 48.4035 31.0899 48.6022 30.9027C48.7559 30.7633 48.8796 30.5964 48.9691 30.4006C49.0593 30.2044 49.1054 29.9797 49.1073 29.7272C49.1054 29.5097 49.0678 29.3167 48.9969 29.1495C48.9243 28.983 48.8299 28.8376 48.7112 28.7189C48.592 28.5983 48.4628 28.5014 48.3207 28.4258C48.1799 28.3502 48.0377 28.2968 47.8972 28.2648V28.2386C48.1017 28.1647 48.2771 28.0631 48.4253 27.9353C48.573 27.8075 48.6875 27.6598 48.7675 27.4914C48.8473 27.3231 48.8879 27.1431 48.8893 26.9499C48.8879 26.7192 48.8431 26.5163 48.7559 26.3437C48.6676 26.171 48.547 26.0274 48.3933 25.9143C48.2757 25.8155 48.1407 25.7343 47.9886 25.6719C47.836 25.6095 47.6604 25.5632 47.4647 25.5328C47.2674 25.5019 47.0427 25.4873 46.7913 25.4873C46.6157 25.4873 46.4432 25.4934 46.2734 25.5036C46.1035 25.5152 45.9453 25.5298 45.7976 25.5497C45.648 25.569 45.5188 25.5922 45.407 25.6181V31.3811ZM46.1644 26.1232C46.224 26.1086 46.3068 26.0972 46.414 26.0868C46.5213 26.0766 46.6623 26.071 46.8349 26.071C47.0918 26.0694 47.3165 26.1028 47.5067 26.1682C47.6985 26.2334 47.8476 26.3363 47.9536 26.4787C48.0596 26.6192 48.1133 26.8022 48.1145 27.0285C48.1145 27.2187 48.0637 27.3885 47.9638 27.5378C47.8638 27.6858 47.7198 27.8033 47.5315 27.8887C47.3444 27.9759 47.1178 28.0195 46.8525 28.0211H46.1644V26.1232ZM46.1644 28.5869H46.7913C47.0002 28.5869 47.1948 28.6087 47.3775 28.6523C47.5591 28.6959 47.7198 28.7639 47.8592 28.8553C47.9983 28.9466 48.1073 29.0642 48.1859 29.2077C48.2641 29.3499 48.3047 29.5213 48.3061 29.7186C48.3047 29.9301 48.2625 30.1105 48.1813 30.2566C48.1001 30.4032 47.9886 30.5212 47.8476 30.6096C47.7052 30.6979 47.5459 30.7617 47.3659 30.8009C47.1862 30.8403 46.9972 30.8605 46.7999 30.8591C46.6654 30.8591 46.5448 30.8561 46.4402 30.8519C46.3342 30.8459 46.2428 30.8373 46.1644 30.8241V28.5869ZM54.0691 30.6066C53.9661 30.6557 53.8485 30.6993 53.7154 30.7357C53.5816 30.7719 53.4397 30.7997 53.2885 30.8197C53.1363 30.8403 52.9826 30.8501 52.8244 30.8501C52.3497 30.8475 51.9451 30.7515 51.6113 30.56C51.2776 30.3686 51.0221 30.0973 50.8454 29.7448C50.6685 29.3935 50.5796 28.9756 50.5782 28.4912C50.5796 28.1048 50.6346 27.7628 50.7424 27.4622C50.8509 27.1635 51.0063 26.9094 51.2064 26.7034C51.408 26.4959 51.6489 26.3394 51.9293 26.2317C52.2104 26.1246 52.5223 26.071 52.868 26.071C53.1134 26.0724 53.3351 26.0954 53.5338 26.1408C53.7328 26.1856 53.9025 26.2438 54.0431 26.3145L54.2344 25.6963C54.1678 25.6601 54.0709 25.6225 53.9443 25.5819C53.8184 25.5425 53.6632 25.508 53.4802 25.4802C53.2956 25.4512 53.0825 25.437 52.8416 25.4354C52.3847 25.437 51.9699 25.511 51.5951 25.6575C51.2208 25.8041 50.8987 26.0131 50.6274 26.2844C50.3561 26.5557 50.1471 26.8804 50.0006 27.2563C49.8528 27.6336 49.7789 28.0545 49.7772 28.5171C49.78 29.0004 49.8528 29.4269 49.9964 29.7982C50.1399 30.1683 50.3415 30.4788 50.6031 30.7302C50.8628 30.9822 51.1675 31.1724 51.5184 31.3013C51.8683 31.4291 52.2509 31.4945 52.6677 31.4945C52.907 31.4931 53.1261 31.4799 53.3265 31.4539C53.5264 31.4266 53.7038 31.3916 53.8545 31.3496C54.0055 31.3074 54.1259 31.2638 54.2172 31.2158L54.0691 30.6066ZM55.1745 25.5309V31.3987H55.9319V28.7087H56.1759C56.4224 28.7087 56.6343 28.7407 56.8113 28.8031C56.9868 28.8668 57.1378 28.9552 57.2612 29.0714C57.3843 29.1859 57.4889 29.3239 57.5745 29.4837C57.6617 29.643 57.7373 29.82 57.8038 30.0143C57.859 30.1699 57.9142 30.328 57.9692 30.489C58.0244 30.6515 58.0823 30.8095 58.1431 30.9651C58.2043 31.1188 58.2709 31.2638 58.3434 31.3987H59.1533C59.0703 31.2248 58.9935 31.0476 58.9237 30.8693C58.8541 30.6891 58.7876 30.5066 58.7208 30.3178C58.6542 30.1293 58.5828 29.9361 58.5088 29.7358C58.4362 29.537 58.3551 29.3529 58.2637 29.1834C58.1739 29.0134 58.0661 28.8624 57.9402 28.7305C57.8154 28.5983 57.6658 28.4882 57.4903 28.401C57.3147 28.3138 57.1058 28.2544 56.8635 28.2212L59.0835 25.5309H58.1781L56.1671 28.134H55.9319V25.5309H55.1745ZM59.8928 25.5309V31.3987H60.7024L62.5393 28.4735C62.7426 28.1503 62.9372 27.8221 63.1255 27.49C63.3145 27.1577 63.4826 26.83 63.6276 26.5061L63.6535 26.5151C63.6336 26.7602 63.619 27.0051 63.6088 27.2503C63.5986 27.4972 63.593 27.7553 63.5886 28.0236C63.5856 28.2938 63.584 28.5851 63.584 28.9V31.3987H64.298V25.5309H63.5408L61.643 28.5519C61.4296 28.8988 61.2323 29.2337 61.0507 29.5558C60.8696 29.8768 60.7072 30.1901 60.5632 30.4934L60.537 30.4848C60.5547 30.2251 60.5679 29.9623 60.5776 29.6982C60.588 29.4341 60.5952 29.1627 60.6013 28.8831C60.6054 28.6027 60.6068 28.3096 60.6068 28.0037V25.5309H59.8928ZM68.651 28.0211H66.3788V26.1668H68.7904V25.5309H65.6126V31.3987H68.921V30.7633H66.3788V28.6479H68.651V28.0211ZM117.876 25.5309V31.3987H118.642V28.6479H121.48V31.3987H122.246V25.5309H121.48V27.9861H118.642V25.5309H117.876ZM125.928 25.4268C125.535 25.428 125.172 25.5008 124.843 25.6459C124.512 25.7909 124.226 25.9984 123.983 26.2681C123.739 26.5395 123.55 26.8632 123.417 27.2405C123.282 27.6192 123.214 28.0413 123.212 28.5088C123.214 28.9538 123.277 29.3585 123.405 29.7242C123.533 30.0887 123.713 30.4032 123.946 30.6678C124.18 30.9317 124.459 31.1346 124.781 31.2781C125.103 31.4205 125.458 31.4931 125.85 31.4945C126.15 31.4945 126.437 31.4509 126.709 31.3653C126.98 31.2812 127.23 31.1534 127.456 30.9853C127.683 30.8169 127.88 30.6096 128.047 30.3601C128.214 30.1119 128.344 29.8246 128.435 29.4978C128.527 29.1713 128.573 28.8061 128.575 28.404C128.573 27.9643 128.511 27.564 128.388 27.2013C128.264 26.8372 128.087 26.5235 127.855 26.2596C127.624 25.9943 127.346 25.7895 127.021 25.6459C126.697 25.5019 126.332 25.428 125.928 25.4268ZM125.902 26.0446C126.155 26.0462 126.381 26.0912 126.581 26.1814C126.783 26.2698 126.957 26.3929 127.106 26.5483C127.256 26.7048 127.381 26.885 127.48 27.0879C127.578 27.2911 127.652 27.5088 127.701 27.7379C127.749 27.9687 127.774 28.2024 127.774 28.439C127.774 28.7741 127.732 29.089 127.649 29.3821C127.566 29.6752 127.444 29.9331 127.285 30.1567C127.124 30.3802 126.928 30.5558 126.694 30.6836C126.461 30.8095 126.194 30.8737 125.893 30.8767C125.652 30.8749 125.434 30.8331 125.236 30.7501C125.039 30.6659 124.865 30.5497 124.713 30.4006C124.56 30.2511 124.432 30.0755 124.329 29.8768C124.225 29.6764 124.146 29.4589 124.093 29.224C124.041 28.989 124.013 28.7449 124.013 28.4912C124.013 28.2344 124.038 27.9849 124.089 27.7451C124.138 27.5058 124.214 27.2825 124.315 27.0766C124.415 26.8718 124.541 26.6918 124.692 26.5369C124.843 26.3829 125.02 26.2626 125.222 26.1765C125.424 26.0898 125.649 26.0462 125.902 26.0446ZM129.088 25.5309L131.16 28.23C130.932 28.2588 130.737 28.3137 130.569 28.3968C130.404 28.4796 130.261 28.5851 130.14 28.7159C130.021 28.8467 129.917 28.9988 129.827 29.1713C129.739 29.3443 129.657 29.5359 129.585 29.7448C129.522 29.9275 129.461 30.1119 129.402 30.2977C129.344 30.4832 129.281 30.6678 129.216 30.8519C129.15 31.036 129.075 31.2188 128.993 31.3987H129.767C129.831 31.2668 129.889 31.1202 129.945 30.9604C129.998 30.8009 130.05 30.6411 130.1 30.4788C130.149 30.3165 130.197 30.1639 130.246 30.0233C130.314 29.8216 130.388 29.6418 130.467 29.4791C130.547 29.3179 130.641 29.1804 130.751 29.0658C130.861 28.951 130.998 28.8624 131.16 28.8014C131.321 28.7407 131.518 28.7087 131.752 28.7087H132.022V31.3987H132.753V28.7087H133.014C133.248 28.7087 133.446 28.7407 133.608 28.8014C133.769 28.8624 133.905 28.951 134.016 29.0658C134.126 29.1804 134.22 29.3179 134.3 29.4791C134.378 29.6418 134.453 29.8216 134.521 30.0233C134.567 30.1639 134.614 30.3165 134.663 30.4788C134.711 30.6411 134.763 30.8009 134.817 30.9604C134.872 31.1202 134.933 31.2668 134.999 31.3987H135.774C135.694 31.2188 135.622 31.036 135.56 30.8519C135.497 30.6678 135.436 30.4818 135.38 30.2946C135.323 30.1075 135.262 29.9218 135.199 29.7358C135.127 29.5257 135.046 29.3341 134.956 29.1597C134.866 28.986 134.76 28.8335 134.638 28.7015C134.516 28.5712 134.371 28.4652 134.203 28.3836C134.035 28.304 133.836 28.2514 133.607 28.23L135.687 25.5309H134.808L132.988 28.134H132.753V25.5309H132.022V28.134H131.787L129.967 25.5309H129.088ZM136.531 25.5309V31.3987H137.341L139.178 28.4735C139.381 28.1503 139.576 27.8221 139.764 27.49C139.953 27.1577 140.121 26.83 140.266 26.5061L140.292 26.5151C140.272 26.7602 140.257 27.0051 140.247 27.2503C140.237 27.4972 140.231 27.7553 140.227 28.0236C140.224 28.2938 140.222 28.5851 140.222 28.9V31.3987H140.936V25.5309H140.179L138.281 28.5519C138.068 28.8988 137.871 29.2337 137.689 29.5558C137.508 29.8768 137.346 30.1901 137.202 30.4934L137.176 30.4848C137.193 30.2251 137.206 29.9623 137.216 29.6982C137.226 29.4341 137.234 29.1627 137.24 28.8831C137.244 28.6027 137.245 28.3096 137.245 28.0037V25.5309H136.531Z" fill="white"/>
</svg>
